<?xml version="1.0" encoding="UTF-8" standalone="no"?>
<!-- Created with Inkscape (http://www.inkscape.org/) -->

<svg
   xmlns:dc="http://purl.org/dc/elements/1.1/"
   xmlns:cc="http://creativecommons.org/ns#"
   xmlns:rdf="http://www.w3.org/1999/02/22-rdf-syntax-ns#"
   xmlns:svg="http://www.w3.org/2000/svg"
   xmlns="http://www.w3.org/2000/svg"
   xmlns:sodipodi="http://sodipodi.sourceforge.net/DTD/sodipodi-0.dtd"
   xmlns:inkscape="http://www.inkscape.org/namespaces/inkscape"
   width="744.09448819"
   height="1052.3622047"
   id="svg4486"
   version="1.1"
   inkscape:version="0.47 r22583"
   sodipodi:docname="bordnummer_backdrop_single">
  <defs
     id="defs4488">
    <inkscape:perspective
       sodipodi:type="inkscape:persp3d"
       inkscape:vp_x="0 : 526.18109 : 1"
       inkscape:vp_y="0 : 1000 : 0"
       inkscape:vp_z="744.09448 : 526.18109 : 1"
       inkscape:persp3d-origin="372.04724 : 350.78739 : 1"
       id="perspective4494" />
    <inkscape:perspective
       id="perspective5048"
       inkscape:persp3d-origin="0.5 : 0.33333333 : 1"
       inkscape:vp_z="1 : 0.5 : 1"
       inkscape:vp_y="0 : 1000 : 0"
       inkscape:vp_x="0 : 0.5 : 1"
       sodipodi:type="inkscape:persp3d" />
  </defs>
  <sodipodi:namedview
     id="base"
     pagecolor="#ffffff"
     bordercolor="#666666"
     borderopacity="1.0"
     inkscape:pageopacity="0"
     inkscape:pageshadow="2"
     inkscape:zoom="1.979899"
     inkscape:cx="208.10076"
     inkscape:cy="876.17461"
     inkscape:document-units="px"
     inkscape:current-layer="g5342"
     showgrid="true"
     inkscape:window-width="1280"
     inkscape:window-height="962"
     inkscape:window-x="-8"
     inkscape:window-y="-8"
     inkscape:window-maximized="1"
     showguides="false">
    <inkscape:grid
       type="xygrid"
       id="grid5279"
       empspacing="5"
       visible="true"
       enabled="true"
       snapvisiblegridlinesonly="true"
       units="mm"
       spacingx="0.2mm"
       spacingy="0.2822mm"
       dotted="false" />
  </sodipodi:namedview>
  <metadata
     id="metadata4491">
    <rdf:RDF>
      <cc:Work
         rdf:about="">
        <dc:format>image/svg+xml</dc:format>
        <dc:type
           rdf:resource="http://purl.org/dc/dcmitype/StillImage" />
        <dc:title></dc:title>
      </cc:Work>
    </rdf:RDF>
  </metadata>
  <g
     inkscape:label="Layer 1"
     inkscape:groupmode="layer"
     id="layer1">
    <g
       id="g5342"
       transform="translate(-53.518455,-47.968977)">
      <rect
         y="70.412262"
         x="74.778297"
         height="211.80103"
         width="148.0215"
         id="rect5026"
         style="fill:#ffffff;fill-opacity:1;stroke:#000000;stroke-width:0.79739958000000000;stroke-linecap:butt;stroke-miterlimit:3;stroke-opacity:0;stroke-dasharray:0.79739958000000000, 0.79739958000000000;stroke-dashoffset:0.79739958000000000" />
      <rect
         y="72.64769"
         x="76.843849"
         height="207.67857"
         width="144.28572"
         id="rect5036"
         style="fill:#cba93e;fill-opacity:1;stroke:none" />
      <rect
         y="74.254837"
         x="78.808113"
         height="204.28571"
         width="140.35715"
         id="rect5038"
         style="fill:#ffffff;fill-opacity:1;stroke:none" />
      <rect
         y="76.576248"
         x="81.486732"
         height="199.82143"
         width="135.17857"
         id="rect4504"
         style="fill:#173a79;fill-opacity:1;stroke-width:0.2;stroke-miterlimit:4;stroke-dasharray:none" />
      <g
         transform="matrix(0.44089342,0,0,0.44089342,-75.627033,4.1449082)"
         id="g5209">
        <g
           id="g2840"
           transform="matrix(1.25,0,0,-1.25,457.01861,243.46699)">
          <path
             d="m 0,0 -0.62,-1.444 1.261,0 L 0,0 z m -1.38,-3.223 -1.625,0 3.026,6.33 c 0.025,0.063 0.078,0.063 0.109,0 l 3.016,-6.33 -1.721,0 -0.238,0.534 -2.339,0 -0.228,-0.534 z"
             style="fill:#ffffff;fill-opacity:1;fill-rule:nonzero;stroke:none"
             id="path2842" />
        </g>
        <g
           id="g2844"
           transform="matrix(1.25,0,0,-1.25,464.53936,243.61962)">
          <path
             d="m 0,0 0,-3.101 -1.566,0 0,6.3 c 0,0.059 0.029,0.104 0.132,0.021 L 2.47,0 l 0,3.119 1.562,0 0,-6.309 c 0,-0.071 -0.027,-0.098 -0.129,-0.018 L 0,0 z"
             style="fill:#ffffff;fill-opacity:1;fill-rule:nonzero;stroke:none"
             id="path2846" />
        </g>
        <g
           id="g2848"
           transform="matrix(1.25,0,0,-1.25,474.02611,243.61962)">
          <path
             d="m 0,0 0,-3.101 -1.566,0 0,6.3 c 0,0.059 0.029,0.104 0.128,0.021 L 2.467,0 l 0,3.119 1.565,0 0,-6.309 c 0,-0.071 -0.027,-0.098 -0.126,-0.018 L 0,0 z"
             style="fill:#ffffff;fill-opacity:1;fill-rule:nonzero;stroke:none"
             id="path2850" />
        </g>
        <g
           id="g2852"
           transform="matrix(1.25,0,0,-1.25,487.16886,243.60674)">
          <path
             d="M 0,0 C 0,0.98 -0.597,1.741 -1.635,1.741 -2.678,1.741 -3.274,0.98 -3.274,0 c 0,-0.977 0.596,-1.744 1.639,-1.744 C -0.597,-1.744 0,-0.977 0,0 m -4.977,0 c 0,1.875 1.549,3.184 3.342,3.184 1.791,0 3.336,-1.309 3.336,-3.184 0,-1.876 -1.545,-3.191 -3.336,-3.191 -1.793,0 -3.342,1.315 -3.342,3.191"
             style="fill:#ffffff;fill-opacity:1;fill-rule:nonzero;stroke:none"
             id="path2854" />
        </g>
        <g
           id="g2856"
           transform="matrix(1.25,0,0,-1.25,542.89149,241.47299)">
          <path
             d="m 0,0 -0.886,0 0,1.401 2.55,0 0,-6.219 L 0,-4.818 0,0 z"
             style="fill:#ffffff;fill-opacity:1;fill-rule:nonzero;stroke:none"
             id="path2858" />
        </g>
        <g
           id="g2860"
           transform="matrix(1.25,0,0,-1.25,550.83461,241.77937)">
          <path
             d="m 0,0 c 0,0.277 -0.21,0.531 -0.576,0.531 -0.373,0 -0.589,-0.254 -0.589,-0.531 0,-0.271 0.216,-0.535 0.589,-0.535 C -0.21,-0.535 0,-0.271 0,0 m 0.384,-2.494 c 0,0.485 -0.346,0.867 -0.96,0.867 -0.614,0 -0.969,-0.382 -0.969,-0.867 0,-0.512 0.355,-0.877 0.969,-0.877 0.614,0 0.96,0.391 0.96,0.877 M -2.54,0.187 c 0,0.856 0.756,1.535 1.964,1.535 1.204,0 1.956,-0.679 1.956,-1.535 0,-0.487 -0.229,-0.863 -0.566,-1.119 0.698,-0.311 1.152,-0.886 1.152,-1.692 0,-1.105 -0.9,-2.038 -2.542,-2.038 -1.65,0 -2.551,0.933 -2.551,2.038 0,0.806 0.452,1.381 1.151,1.685 -0.337,0.263 -0.564,0.639 -0.564,1.126"
             style="fill:#ffffff;fill-opacity:1;fill-rule:nonzero;stroke:none"
             id="path2862" />
        </g>
        <g
           id="g2864"
           transform="matrix(1.25,0,0,-1.25,554.35511,247.33174)">
          <path
             d="M 0,0 2.69,2.873 C 3.024,3.245 3.318,3.602 3.318,4.05 3.318,4.45 3.034,4.745 2.58,4.745 2.111,4.745 1.727,4.378 1.635,3.783 L 0.146,4.225 c 0.285,1.226 1.175,1.939 2.479,1.939 1.324,0 2.312,-0.761 2.312,-1.978 0,-0.782 -0.412,-1.387 -1.016,-2.027 l -0.869,-0.926 1.848,0 0,-1.364 -4.875,0 C -0.057,-0.131 -0.077,-0.071 0,0"
             style="fill:#ffffff;fill-opacity:1;fill-rule:nonzero;stroke:none"
             id="path2866" />
        </g>
        <g
           id="g2868"
           transform="matrix(1.25,0,0,-1.25,566.42049,241.77937)">
          <path
             d="m 0,0 c 0,0.277 -0.211,0.531 -0.575,0.531 -0.374,0 -0.587,-0.254 -0.587,-0.531 0,-0.271 0.213,-0.535 0.587,-0.535 C -0.211,-0.535 0,-0.271 0,0 m 0.385,-2.494 c 0,0.485 -0.347,0.867 -0.96,0.867 -0.614,0 -0.967,-0.382 -0.967,-0.867 0,-0.512 0.353,-0.877 0.967,-0.877 0.613,0 0.96,0.391 0.96,0.877 m -2.926,2.681 c 0,0.856 0.761,1.535 1.966,1.535 1.206,0 1.957,-0.679 1.957,-1.535 0,-0.487 -0.229,-0.863 -0.566,-1.119 0.693,-0.311 1.152,-0.886 1.152,-1.692 0,-1.105 -0.897,-2.038 -2.543,-2.038 -1.647,0 -2.55,0.933 -2.55,2.038 0,0.806 0.449,1.381 1.15,1.685 -0.336,0.263 -0.566,0.639 -0.566,1.126"
             style="fill:#ffffff;fill-opacity:1;fill-rule:nonzero;stroke:none"
             id="path2870" />
        </g>
        <g
           id="g2872"
           transform="matrix(1.25,0,0,-1.25,522.79387,187.06437)">
          <path
             d="m 0,0 c 3.313,-0.457 5.614,-1.909 6.891,-3.015 0.236,0.931 0.487,4.663 -0.243,6.059 0,0 0.473,0.235 0.534,0.259 C 7.252,3.331 7.558,3.396 7.2,3.581 4.886,4.761 -3.042,6.12 -5.98,5.875 -6.278,5.849 -6.293,5.783 -6.243,5.718 -6.184,5.654 -5.858,5.307 -5.479,5.246 -5.494,4.686 -7.787,2.269 -7.529,-0.713 -5.367,0.114 -3.303,0.45 0,0"
             style="fill:#ffffff;fill-opacity:1;fill-rule:nonzero;stroke:none"
             id="path2874" />
        </g>
        <g
           id="g2876"
           transform="matrix(1.25,0,0,-1.25,548.73861,180.68324)">
          <path
             d="m 0,0 c -0.754,1.731 -4.374,0.181 -5.348,0.648 -0.464,0.367 -0.876,1.777 -1.178,2.497 -0.97,2.25 -4.055,0.27 -4.655,-1.178 1.256,0.9 3.421,0.941 4.287,-0.511 C -6.04,0 -5.521,-0.816 -3.738,-0.955 -1.764,-1.106 -1.006,1.175 0,0"
             style="fill:#ffffff;fill-opacity:1;fill-rule:nonzero;stroke:none"
             id="path2878" />
        </g>
        <g
           id="g2880"
           transform="matrix(1.25,0,0,-1.25,529.52474,174.34224)">
          <path
             d="M 0,0 C -1.218,-2.301 0.606,-4.168 3.903,-3.13 1.436,-2.801 1.197,-0.878 2.766,-0.654 2.688,0.554 2.726,1.217 2.255,2.162 1.795,3.106 -1.011,3.242 -2.614,1.775 -2.7,1.355 -3.021,0.067 -2.954,-0.824 -2.284,-0.22 -1.092,0.435 0,0"
             style="fill:#ffffff;fill-opacity:1;fill-rule:nonzero;stroke:none"
             id="path2882" />
        </g>
        <g
           id="g2884"
           transform="matrix(1.25,0,0,-1.25,522.49474,246.44062)">
          <path
             d="M 0,0 C -0.013,0.555 -0.449,2.192 -0.517,2.542 -0.556,2.762 -0.663,2.797 -0.713,2.797 -0.784,2.547 -0.856,2 -0.874,1.648 -1.2,2.223 -1.257,2.944 -1.3,3.141 -1.343,3.372 -1.487,3.343 -1.515,3.225 -1.537,3.106 -1.785,1.774 -1.755,1.232 -1.661,1.116 -0.427,0.087 0,0"
             style="fill:#ffffff;fill-opacity:1;fill-rule:evenodd;stroke:none"
             id="path2886" />
        </g>
        <g
           id="g2888"
           transform="matrix(1.25,0,0,-1.25,505.41711,241.87037)">
          <path
             d="M 0,0 C 0.217,0.38 0.455,1.202 0.542,1.792 0.162,1.702 -0.537,0.644 -0.813,0.177 -0.644,0.506 -0.516,1.214 -0.53,1.478 -0.99,1.496 -2.115,-0.292 -2.385,-0.77 -1.658,-0.649 -0.319,-0.206 0,0"
             style="fill:#ffffff;fill-opacity:1;fill-rule:evenodd;stroke:none"
             id="path2890" />
        </g>
        <g
           id="g2892"
           transform="matrix(1.25,0,0,-1.25,524.68961,171.18612)">
          <path
             d="m 0,0 c -0.024,-0.421 0.081,-0.805 0.17,-0.992 -0.059,-0.388 -0.996,-5.944 -0.996,-5.944 0.13,0.072 0.637,0.039 0.697,-0.163 0.147,1.302 0.684,6.048 0.684,6.048 0.157,0.219 0.329,0.584 0.381,0.978 C 0.985,0.245 0.012,0.318 0,0"
             style="fill:#ffffff;fill-opacity:1;fill-rule:evenodd;stroke:none"
             id="path2894" />
        </g>
        <g
           id="g2896"
           transform="matrix(1.25,0,0,-1.25,510.14849,256.83312)">
          <path
             d="m 0,0 c 4.327,3.215 9.473,3.78 10.587,3.266 -1.092,-2.569 3.589,-2.127 5.809,-1.525 0.808,0.22 1.06,0.419 1.682,0.003 0.638,-0.413 -0.299,-1.098 3.613,-1.179 l 7.328,0 C 27.956,0.691 25.894,0.931 23.76,2.263 22.491,1.262 19.945,3.036 20.843,4.23 19.134,4.439 17.373,3.25 16.131,2.685 15.319,2.314 14.001,2.345 13.729,2.921 13.379,3.683 13.778,4.578 14.496,4.789 13.577,5.26 11.516,5.741 9.013,4.722 9.185,5.153 9.718,6.496 10.18,7.634 9.6,7.827 9.06,8.206 8.585,8.567 6.829,9.915 5.44,11.559 3.901,13.243 c 0,0 0.061,0.266 0.075,0.394 3.179,-0.163 7.092,-2.262 8.313,-3.17 0.653,-0.492 1.381,-0.95 0.959,-2.588 4.488,3.317 6.883,8.544 7.251,11.603 0,0 0.645,0.154 1.698,0.166 -0.006,0.117 -0.051,0.304 -0.289,0.421 -0.974,0.481 -5.278,2.198 -6.616,2.412 0.086,0.898 0.012,2.412 -0.099,3.582 3.99,-1.358 8.223,-3.648 10.348,-5.547 0.119,-0.116 0.338,-0.255 0.407,0.061 1.33,5.88 0.705,11.477 0.107,15.621 0.257,0 1.49,0.233 1.635,0.593 -0.775,1.595 -14.486,4.467 -16.579,5.299 0,0 -0.55,2.234 -1.086,3.313 1.947,-0.42 6.684,-1.391 11.497,-4.77 0.194,-0.135 0.342,-0.256 0.427,-0.069 1.11,2.541 0.596,6.435 -0.329,8.28 0,0 0.795,0.052 0.997,0.385 -1.095,1.343 -6.749,2.864 -12.572,3.906 0.189,-0.034 0.374,-0.068 0.563,-0.1 -0.212,0.532 -0.489,1.807 -0.572,2.41 C 9.485,55.134 9.118,54.216 8.818,53.35 9.132,53.301 9.446,53.24 9.755,53.184 3.929,54.209 -2.001,54.745 -3.677,54.13 c -0.036,-0.237 0.117,-0.451 0.582,-0.65 0.262,-0.105 0.232,-0.163 -0.073,-0.274 -1.827,-0.648 -3.315,-6.134 -3.179,-7.704 0.621,-0.208 5.336,1.952 14.441,0.321 -0.028,-0.445 -0.607,-1.447 -0.527,-1.898 0.188,0.224 0.467,0.577 0.547,0.691 0.074,0.11 0.114,0.134 0.182,0.134 0.049,-0.25 -0.23,-1.56 -0.115,-2.149 -2.735,0.082 -12.576,2.342 -20.982,1.306 -0.118,-0.012 -0.131,-0.11 -0.074,-0.205 0.086,-0.162 0.338,-0.522 0.97,-0.84 -2.923,-4.511 -4.785,-10.546 -5.056,-14.921 3.674,1.775 15.704,1.818 20.843,0.556 C 3.839,27.995 3.138,26.713 2.938,26.45 2.749,26.188 2.905,26.013 3.009,26.202 c 0.234,0.414 1.178,1.063 1.632,1.6 -0.058,-0.439 -0.753,-1.838 -0.552,-2.595 -5.335,1.05 -13.846,1.74 -17.715,1.179 -0.286,-0.04 -0.309,-0.108 -0.245,-0.204 0.373,-0.437 1.158,-0.665 1.682,-0.838 -1.098,-2.885 -0.405,-9.808 2.898,-13.309 -0.179,0.305 -0.347,1.073 0.43,1.477 3.105,1.6 8.105,0.962 10.249,0.707 -0.51,-0.925 -5.695,-3.141 -7.773,-3.445 0.384,-2.543 0.297,-5.257 0.228,-6.034 l 0,-0.018 c -2.505,1.019 -4.567,0.538 -5.482,0.067 0.716,-0.211 1.112,-1.106 0.768,-1.868 -0.276,-0.576 -1.595,-0.607 -2.407,-0.236 -1.244,0.565 -3.003,1.754 -4.711,1.545 0.897,-1.194 -1.647,-2.968 -2.919,-1.967 -2.134,-1.332 -4.195,-1.572 -5.252,-1.698 l 7.323,0 c 3.912,0.081 2.976,0.766 3.616,1.179 0.62,0.416 0.873,0.217 1.68,-0.003 2.216,-0.602 6.897,-1.044 5.81,1.525 C -6.623,3.78 -1.943,1.887 0,0"
             style="fill:#ffffff;fill-opacity:1;fill-rule:nonzero;stroke:none"
             id="path2898" />
        </g>
        <g
           id="g2900"
           transform="matrix(1.25,0,0,-1.25,529.48449,174.39474)">
          <path
             d="M 0,0 C 1.296,0.867 2.795,1.266 2.202,2.336 2.233,2.296 2.268,2.251 2.282,2.204 2.758,1.259 2.716,0.596 2.798,-0.612 1.227,-0.835 1.468,-2.759 3.936,-3.088 0.662,-4.121 -1.158,-2.276 0,0"
             style="fill:#dedfee;fill-opacity:1;fill-rule:evenodd;stroke:none"
             id="path2902" />
        </g>
        <g
           id="g2904"
           transform="matrix(1.25,0,0,-1.25,548.73861,180.68324)">
          <path
             d="M 0,0 C -0.724,1.673 -4.14,0.271 -5.243,0.604 -5.248,0.601 -5.252,0.601 -5.252,0.601 -5.406,0.61 -6.04,0.792 -6.94,1.523 -6.934,1.502 -6.912,1.483 -6.894,1.456 -6.04,0 -5.521,-0.816 -3.738,-0.955 -1.764,-1.106 -1.006,1.175 0,0"
             style="fill:#dedfee;fill-opacity:1;fill-rule:evenodd;stroke:none"
             id="path2906" />
        </g>
        <g
           id="g2908"
           transform="matrix(1.25,0,0,-1.25,530.36336,185.85774)">
          <path
             d="m 0,0 c -0.595,-0.993 -0.695,0.019 -2.734,0.407 -3.953,0.749 -8.285,0.135 -10.851,-2.086 2.164,0.827 4.227,1.164 7.529,0.714 3.307,-0.457 5.611,-1.91 6.891,-3.01 C 0.835,-2.893 0.722,-0.686 0,0"
             style="fill:#dedfee;fill-opacity:1;fill-rule:evenodd;stroke:none"
             id="path2910" />
        </g>
        <g
           id="g2912"
           transform="matrix(1.25,0,0,-1.25,522.84999,200.45862)">
          <path
             d="m 0,0 0.006,-0.001 c -0.048,0.112 -0.092,0.213 -0.142,0.31 1.944,-0.422 6.684,-1.397 11.497,-4.773 0.133,-0.093 0.249,-0.18 0.336,-0.157 0.04,2.559 -0.728,5.486 -1.405,6.279 -0.225,-0.81 -1.151,-1.21 -2.063,-0.75 -9.141,4.564 -19.157,1.659 -23.673,-0.352 1.934,0.427 6.347,1.427 13.38,0.166 -0.031,-0.443 -0.61,-1.446 -0.53,-1.896 0.188,0.224 0.467,0.578 0.547,0.69 0.074,0.11 0.113,0.134 0.182,0.134 0.049,-0.25 -0.23,-1.559 -0.115,-2.151 0,0 0.759,2.094 0.873,4.775 C -0.875,1.921 -0.136,0.309 0,0"
             style="fill:#dedfee;fill-opacity:1;fill-rule:evenodd;stroke:none"
             id="path2914" />
        </g>
        <g
           id="g2916"
           transform="matrix(1.25,0,0,-1.25,518.01474,216.542)">
          <path
             d="m 0,0 c -3.302,0.586 -14.987,-0.532 -21.947,-3.818 4.657,1.296 14.902,1.221 19.536,0.082 -0.043,-0.502 -0.746,-1.784 -0.943,-2.047 -0.19,-0.261 -0.034,-0.437 0.07,-0.25 0.234,0.416 1.178,1.064 1.632,1.602 -0.058,-0.439 -0.753,-1.838 -0.552,-2.595 0,0 0.291,-0.084 0.702,-0.08 0,0 1.239,5.779 1.502,7.106"
             style="fill:#dedfee;fill-opacity:1;fill-rule:evenodd;stroke:none"
             id="path2918" />
        </g>
        <g
           id="g2920"
           transform="matrix(1.25,0,0,-1.25,541.15811,216.64325)">
          <path
             d="m 0,0 c -0.427,-0.92 -2.137,-3.684 -5.329,-2.516 -0.813,0.299 -5.132,1.712 -5.132,1.712 -0.444,1.651 -0.933,3.663 -1.404,4.717 0.231,-1.764 0.091,-5.037 -1.114,-7.288 -0.499,0.348 -3.425,0.213 -5.816,-3.333 1.149,0.962 5.643,3.625 6.708,0.962 0.626,1.831 0.895,4.767 0.8,5.855 0.387,-2.193 1.017,-4.028 -0.546,-9.058 -1.694,0.226 -7.105,-1.882 -8.587,-3.973 3.633,2.778 11.066,3.786 9.888,-1.283 0.872,0.951 1.037,3.362 1.018,4.534 0.084,0.899 0.01,2.412 -0.101,3.582 3.99,-1.362 8.223,-3.648 10.346,-5.547 0.085,-0.079 0.214,-0.168 0.31,-0.112 C 1.623,-7.627 1.631,-2.817 0,0"
             style="fill:#dedfee;fill-opacity:1;fill-rule:evenodd;stroke:none"
             id="path2922" />
        </g>
        <g
           id="g2924"
           transform="matrix(1.25,0,0,-1.25,503.26749,244.25499)">
          <path
             d="m 0,0 c 0.006,-0.113 0.052,-1.282 0.052,-1.448 0.604,-0.154 1.844,0.659 2.496,0.691 -0.008,0.24 -0.805,0.25 -0.813,0.732 0.503,0.242 2.845,1.128 3.572,1.412 0.112,0.045 0.205,0.09 0.17,0.252 C 5.428,1.878 5.351,2.288 5.351,2.288 5.28,2.043 0.593,0.257 0.236,0.245 L 0,0 z"
             style="fill:#dedfee;fill-opacity:1;fill-rule:evenodd;stroke:none"
             id="path2926" />
        </g>
        <g
           id="g2928"
           transform="matrix(1.25,0,0,-1.25,499.04687,239.22624)">
          <path
             d="m 0,0 c -0.432,-0.414 -0.898,-0.999 -0.476,-1.928 -0.139,0.364 -0.183,1.003 0.498,1.354 3.103,1.598 8.103,0.959 10.248,0.708 l 0.819,3.368 C 8.129,4.278 1.716,1.658 0,0"
             style="fill:#dedfee;fill-opacity:1;fill-rule:evenodd;stroke:none"
             id="path2930" />
        </g>
        <g
           id="g2932"
           transform="matrix(1.25,0,0,-1.25,531.86724,236.34362)">
          <path
             d="m 0,0 c -0.409,-0.61 -1.124,-2.058 -2.833,-1.342 -1.734,0.705 -4.917,2.562 -10.994,2.764 -0.129,0.434 -0.512,1.471 -0.612,1.764 l 0,-8.485 c 0.439,0.672 0.937,1.877 0.963,2.151 0,0 0.063,0.266 0.077,0.394 3.179,-0.164 7.092,-2.263 8.313,-3.171 0.653,-0.492 1.382,-0.947 0.962,-2.588 C -2.411,-7.239 -0.079,-2.731 0,0"
             style="fill:#dedfee;fill-opacity:1;fill-rule:evenodd;stroke:none"
             id="path2934" />
        </g>
        <g
           id="g2936"
           transform="matrix(1.25,0,0,-1.25,510.30424,255.93949)">
          <path
             d="M 0,0 C 1.554,1.473 5.984,3.306 8.792,3.849 8.968,4.274 9.593,5.781 10.055,6.919 9.892,6.968 9.745,7.038 9.593,7.117 9.503,6.93 9.355,6.612 9.308,6.527 9.255,6.415 9.125,6.436 8.914,6.568 8.011,7.157 5.265,9.737 4.59,10.398 4.449,10.555 4.308,10.543 4.222,10.424 4.14,10.3 3.865,9.908 3.865,9.908 4.222,9.602 6.054,7.775 6.23,7.613 6.398,7.448 5.927,7.513 5.722,7.047 5.953,6.863 8.294,4.903 8.394,4.829 8.509,4.76 8.422,4.591 8.351,4.478 8.265,4.359 8.056,4.115 8.056,4.115 7.4,4.903 5.023,7.061 2.97,8.214 2.707,8.365 2.576,8.096 2.505,7.945 2.437,7.808 1.022,3.786 0.953,3.641 0.885,3.498 0.789,3.52 0.768,3.801 0.736,4.077 0.572,8.541 0.548,8.761 -0.295,8.895 -4.627,7.397 -5.093,7.183 -5.528,6.989 -5.528,6.612 -5.563,6.132 -5.578,5.857 -5.631,4.675 -5.675,3.736 -5.375,3.592 -5.072,3.43 -4.758,3.234 -1.585,1.25 -1.446,0.689 0,0"
             style="fill:#dedfee;fill-opacity:1;fill-rule:evenodd;stroke:none"
             id="path2938" />
        </g>
      </g>
      <flowRoot
         transform="matrix(1.13712,0,0,1.1022384,-293.04949,-132.57633)"
         style="font-size:96.46790314px;font-style:normal;font-variant:normal;font-weight:normal;font-stretch:normal;text-align:center;line-height:100%;writing-mode:lr-tb;text-anchor:middle;fill:#ffffff;fill-opacity:1;stroke:none;font-family:MS UI Gothic;-inkscape-font-specification:MS UI Gothic"
         id="flowRoot5261"
         xml:space="preserve"><flowRegion
           id="flowRegion5263"><rect
             style="font-size:96.46790314px;font-style:normal;font-variant:normal;font-weight:normal;font-stretch:normal;text-align:center;line-height:100%;writing-mode:lr-tb;text-anchor:middle;fill:#ffffff;fill-opacity:1;font-family:MS UI Gothic;-inkscape-font-specification:MS UI Gothic"
             y="221.64789"
             x="328.92856"
             height="102.85714"
             width="121.78571"
             id="rect5265" /></flowRegion><flowPara
           style="font-size:96.46790314px;font-style:normal;font-variant:normal;font-weight:normal;font-stretch:normal;text-align:center;line-height:100%;writing-mode:lr-tb;text-anchor:middle;font-family:MS UI Gothic;-inkscape-font-specification:MS UI Gothic"
           id="flowPara5269">27</flowPara></flowRoot>    </g>
    <path
       style="fill:none;stroke:#000000;stroke-width:1px;stroke-linecap:butt;stroke-linejoin:miter;stroke-opacity:1"
       d="m 21.259843,2.4448598 0,19.9984252 0,0"
       id="path5410" />
    <path
       style="fill:none;stroke:#000000;stroke-width:1px;stroke-linecap:butt;stroke-linejoin:miter;stroke-opacity:1"
       d="m 3.5433071,22.443285 17.7165359,0 0,0"
       id="path5412" />
    <path
       style="fill:none;stroke:#000000;stroke-width:1px;stroke-linecap:butt;stroke-linejoin:miter;stroke-opacity:1"
       d="m 170.07874,2.4448598 0,19.9984252 0,0"
       id="path5414" />
    <path
       style="fill:none;stroke:#000000;stroke-width:1px;stroke-linecap:butt;stroke-linejoin:miter;stroke-opacity:1"
       d="m 21.25,234.32647 -17.7066929,0 0,0"
       id="path5422" />
  </g>
</svg>
